<svg class="icon" viewBox="0 0 1024 1024" xmlns="http://www.w3.org/2000/svg" width="200" height="200"><defs><style/></defs><path d="M510.273 0C228.458 0 0 228.458 0 510.273s228.458 510.273 510.273 510.273c281.818 0 510.273-228.457 510.273-510.273S792.09 0 510.273 0zM137.798 563.23c-9.764 0-17.733-7.69-17.733-17.157v-102.95c0-9.431 7.97-17.144 17.733-17.144h187.135l-81.476 137.25H137.798zm115.573 193.643l-59.726 39.333c-8.032 5.32-13.718 1.944-12.604-7.426l7.97-67.303c1.11-9.367 8.93-13.204 17.387-8.513l46.219 25.667c8.441 4.71 8.787 12.96.754 18.242zm14.339-37.929l-46.219-25.67c-8.45-4.708-11.43-15.23-6.51-23.41l214.014-360.637c4.855-8.198 15.803-11.073 24.244-6.321l46.22 25.616c8.452 4.745 11.363 15.277 6.515 23.446L291.957 712.635c-4.85 8.184-15.802 10.985-24.247 6.309zM430.598 563.23l81.47-137.251h46.912l66.165 137.25H430.598zm265.357 40.96c-18.504-8.972-110.654-214.744-134.264-268.433-23.632-53.688-95-196.602-71.918-207.711 16.428-7.98 75.379 104.558 119.577 172.112 44.136 67.563 136.43 241.767 147.784 261.607 11.301 19.886-10.873 36.466-23.2 41.422-12.34 4.97-19.49 9.912-37.979 1.002zm60.554 94.583l-27.847-42.571c-5.756-8.843-2.767-19.775 6.571-24.452l26.54-13.207c9.359-4.622 21.07-.885 26.048 8.383l21.969 40.879c4.995 9.254 1.591 21.125-7.42 26.342l-18.98 10.98c-9.007 5.303-21.125 2.424-26.882-6.354zm102.47 111.66c-5.817-18.03-50.23-19.23-70.115-46.396-19.952-27.064-3.465-41.014 3.463-47.448 80.653-43.96 66.65 93.845 66.65 93.845zM882.75 563.23h-93.674c-1.032-5.287-2.71-10.587-5.538-15.543-2.44-4.229-8.602-15.608-17.19-31.498-12.397-22.911-30.205-55.692-49.265-90.21h165.658c9.765 0 17.73 7.714 17.73 17.15v102.944h.01c-.002 9.466-7.968 17.157-17.732 17.157z"/></svg>