<svg class="icon" viewBox="0 0 1152 1024" xmlns="http://www.w3.org/2000/svg" width="225" height="200"><defs><style/></defs><path d="M1152 480c0-47.26-25.9-88.08-64-110.24V64.02c0-17.5-13.96-64.02-64-64.02a63.85 63.85 0 0 0-39.96 14.04L813.98 150.1C728.56 218.38 621.32 256 512 256H128C57.3 256 0 313.3 0 384v192c0 70.7 57.3 128 128 128h67.4c-2.78 20.96-4.36 42.28-4.36 64 0 79.54 18.52 154.7 51.12 221.88 10.38 21.38 33.04 34.12 56.8 34.12h148.56c52.1 0 83.38-59.68 51.8-101.12-32.8-43.04-52.3-96.72-52.3-154.88 0-22.22 3.24-43.58 8.82-64H512c109.32 0 216.56 37.62 301.96 105.9l170.06 136.06a64.046 64.046 0 0 0 39.96 14.04c49.84 0 64-45.56 64-64V590.26c38.12-22.18 64.02-63 64.02-110.26zM960 762.84l-66.1-52.88C785.9 623.56 650.24 576 512 576V384c138.24 0 273.9-47.56 381.9-133.96l66.1-52.88v565.68z"/></svg>