<svg class="icon" viewBox="0 0 1024 1024" xmlns="http://www.w3.org/2000/svg" width="200" height="200"><defs><style/></defs><path d="M801.764 705.22c-53.351 0-96.588 43.247-96.588 96.61 0 53.364 43.236 96.61 96.588 96.61 53.35 0 96.587-43.246 96.587-96.61 0-53.365-43.236-96.61-96.587-96.61z"/><path d="M984.678 472.603L898.35 318.78c-17.656-21.284-29.578-38.644-57.952-38.644H705.175V164.203c0-21.284-17.355-38.643-38.635-38.643H48.378c-21.28 0-38.635 17.36-38.635 38.643v579.66c0 21.286 17.356 38.645 38.635 38.645h77.042c9.475-66.573 66.295-118.119 135.452-118.119s125.978 51.546 135.45 118.119l269.99-.04c9.509-66.567 66.329-118.079 135.452-118.079 69.158 0 125.977 51.547 135.451 118.119h38.408c21.278 0 38.634-17.36 38.634-38.644v-193.22c-.001-36.607-29.58-78.041-29.58-78.041zM743.81 550.644v-193.22h94.511c6.225 0 14.867 9.133 14.867 9.133l81.343 151.256c7.205 10.603 15.017 23.171 15.017 32.831H743.811z"/><path d="M260.872 705.22c-53.352 0-96.589 43.247-96.589 96.61.002 53.364 43.238 96.61 96.589 96.61s96.588-43.246 96.588-96.61c0-53.365-43.238-96.61-96.588-96.61z"/></svg>