<?xml version="1.0" standalone="no"?><!DOCTYPE svg PUBLIC "-//W3C//DTD SVG 1.1//EN" "http://www.w3.org/Graphics/SVG/1.1/DTD/svg11.dtd"><svg t="1626778615080" class="icon" viewBox="0 0 1025 1024" version="1.1" xmlns="http://www.w3.org/2000/svg" p-id="1570" xmlns:xlink="http://www.w3.org/1999/xlink" width="200.1953125" height="200"><defs><style type="text/css"></style></defs><path d="M771.488 645.504c62.88 0 114.016-54.752 114.016-122.08s-51.168-122.112-114.016-122.112-114.048 54.752-114.048 122.112c0 67.328 51.136 122.08 114.048 122.08zM758.272 823.744l105.12-149.248a366.848 366.848 0 0 0-91.424-11.936c-2.496 0-67.04-5.12-134.048 25.536 0 0-8.512 0.864-25.184 26.656-25.504 41.472-64.64 102.016-76.16 122.112-8.096 13.248-28.512 39.872-15.232 67.776 14.592 27.776 27.008 48.832 31.904 52.448h63.008c-1.248-47.776 43.072-126.24 142.016-133.344zM1006.848 837.568c-19.392-33.248-62.528-100.8-65.984-106.88-4.544-8-18.752-38.432-45.28-46.688-2.88-0.8-6.496-2.016-10.88-3.424l-100.672 143.04c96.128 5.824 143.68 80.832 143.68 133.344l57.696 0.16s6.112 0.608 36.224-54.016c11.2-28.736-0.992-41.088-14.784-65.536z" p-id="1571"></path><path d="M936.384 59.84H88.512A88.64 88.64 0 0 0 0 148.32v690.016a88.48 88.48 0 0 0 88.512 88.288h375.04a32.608 32.608 0 0 0 0-65.184H88.512a23.2 23.2 0 0 1-23.328-23.136V298.176h894.592v403.968a32.576 32.576 0 1 0 65.184 0V148.352A88.704 88.704 0 0 0 936.384 59.84zM65.184 239.104V148.352c0-12.832 10.432-23.264 23.296-23.264h214.88c0 0.256-0.096 0.512-0.096 0.704V169.28a28.608 28.608 0 0 0 28.512 28.576 28.704 28.704 0 0 0 28.576-28.704V125.728c0-0.224-0.16-0.448-0.16-0.704h307.84c0 0.256-0.096 0.48-0.096 0.704v43.488a28.704 28.704 0 0 0 28.576 28.576 28.8 28.8 0 0 0 20.192-8.416 28.48 28.48 0 0 0 8.352-20.16V125.728c0-0.224-0.096-0.448-0.096-0.704h211.488c12.8 0 23.36 10.464 23.36 23.296v90.784H65.184z" p-id="1572"></path><path d="M149.12 689.376h22.304V574.4h-16.32v-43.136h16.32v-87.392h-19.072v-42.688h80.832v42.688H214.144v87.392h15.84v43.136H214.144v114.976h22.208v43.072H149.12v-43.072M276.448 630.112L276.48 480l27.04-32.896v139.808l-27.072 43.2M309.344 715.68l24.192-47.872v-278.176h32.64v297.312l-65.856 50.624 9.024-21.888M407.84 689.376h22.272V574.4h-15.904v-43.136h15.904v-87.392h-19.072v-42.688h80.896v42.688h-18.72v87.392h15.872v43.136h-15.872v114.976h21.888v43.072h-87.264v-43.072" p-id="1573"></path><path d="M469.728 422.656a21.344 21.344 0 1 0 42.656 0 21.344 21.344 0 0 0-42.656 0z m-78.912-0.032a21.408 21.408 0 1 0 42.784-0.032 21.408 21.408 0 0 0-42.784 0.032z m-57.152-32.768a16.192 16.192 0 1 0 32.352-0.032 16.192 16.192 0 0 0-32.352 0.032z m134.304 163.072a21.504 21.504 0 1 0 43.04 0 21.536 21.536 0 1 0-43.04 0z m-75.072 0a21.536 21.536 0 1 0 43.072-0.064 21.536 21.536 0 0 0-43.072 0.064z m80.864 158.016a21.632 21.632 0 1 0 43.232-0.032 21.632 21.632 0 0 0-43.232 0.032z m-87.36 0a21.632 21.632 0 0 0 32.416 18.688 21.728 21.728 0 0 0 0-37.408 21.696 21.696 0 0 0-32.416 18.72z m-258.816 0a21.568 21.568 0 1 0 43.104 0.096 21.568 21.568 0 0 0-43.104-0.096z m85.984 0a21.632 21.632 0 0 0 43.2 0 21.6 21.6 0 0 0-43.2 0z m-5.6-158.016a21.568 21.568 0 1 0 43.168 0.032 21.568 21.568 0 0 0-43.168-0.032z m4.288-130.304a21.408 21.408 0 1 0 42.816 0 21.408 21.408 0 0 0-42.816 0zM134.464 552.928a21.6 21.6 0 1 0 43.168 0.032 21.6 21.6 0 0 0-43.168-0.032z m-2.816-130.304a21.44 21.44 0 1 0 42.944 0 21.44 21.44 0 0 0-42.944 0zM577.888 799.68h361.248v157.28H577.888z" p-id="1574"></path><path d="M843.168 669.888l52.416 14.112-106.304 148.992-88.384-23.36z" p-id="1575"></path></svg>