<?xml version="1.0" standalone="no"?><!DOCTYPE svg PUBLIC "-//W3C//DTD SVG 1.1//EN" "http://www.w3.org/Graphics/SVG/1.1/DTD/svg11.dtd"><svg t="1639022097451" class="icon" viewBox="0 0 1024 1024" version="1.1" xmlns="http://www.w3.org/2000/svg" p-id="5590" xmlns:xlink="http://www.w3.org/1999/xlink" width="200" height="200"><defs><style type="text/css"></style></defs><path d="M435.2 230.4a25.6 25.6 0 0 1 25.6-25.6h102.4a25.6 25.6 0 0 1 25.6 25.6v102.4a25.6 25.6 0 0 1-25.6 25.6h-32v83.2H716.8c24.7296 0 44.8 20.0704 44.8 44.8v153.6H793.6a25.6 25.6 0 0 1 25.6 25.6v102.4a25.6 25.6 0 0 1-25.6 25.6h-102.4a25.6 25.6 0 0 1-25.6-25.6v-102.4a25.6 25.6 0 0 1 25.6-25.6h32v-153.6a6.4 6.4 0 0 0-6.4-6.4h-185.6V640H563.2a25.6 25.6 0 0 1 25.6 25.6v102.4a25.6 25.6 0 0 1-25.6 25.6h-102.4a25.6 25.6 0 0 1-25.6-25.6v-102.4a25.6 25.6 0 0 1 25.6-25.6h32v-160H307.2a6.4 6.4 0 0 0-6.4 6.4v153.6H332.8a25.6 25.6 0 0 1 25.6 25.6v102.4a25.6 25.6 0 0 1-25.6 25.6H230.4a25.6 25.6 0 0 1-25.6-25.6v-102.4a25.6 25.6 0 0 1 25.6-25.6h32v-153.6c0-24.7296 20.0704-44.8 44.8-44.8h185.6V358.4H460.8a25.6 25.6 0 0 1-25.6-25.6V230.4z m38.4 89.6h76.8v-76.8h-76.8v76.8z m230.4 435.2h76.8v-76.8h-76.8v76.8z m-230.4-76.8v76.8h76.8v-76.8h-76.8z m-230.4 76.8h76.8v-76.8h-76.8v76.8z" p-id="5591" fill="#bfbfbf"></path></svg>