<svg class="icon" viewBox="0 0 1024 1024" xmlns="http://www.w3.org/2000/svg" width="200" height="200"><path d="M540.573 501V282.415c-8-1.257-15.658-13.83-24.058-13.83h-4.8c-9.83 0-18.916 13.087-28.288 14.516v217.897H26.259V326.704c0-32.059 25.601-58.118 57.146-58.118h104.748c-34.573-16.972-53.374-39.888-63.032-62.632-27.944-65.775 14.344-144.865 68.29-185.896C217.24 1.886 248.328-2.8 285.587 6c79.033 18.744 178.067 99.149 228.527 162.067C564.574 105.149 663.608 24.744 742.641 6c37.26-8.743 68.347-4.057 92.177 14.058 53.946 41.031 96.234 120.121 68.29 185.896-9.658 22.802-28.63 45.66-63.318 62.632h100.805c31.545 0 57.146 26.059 57.146 58.118v174.295H540.573zm-267.9-438.425c-7.887-1.829-14.973-2.8-21.373-2.8-9.772 0-17.716 2.286-23.659 6.8-36.116 27.487-65.546 79.833-50.06 116.35 8.687 20.4 56.118 82.29 306.475 41.488C453.54 175.61 349.419 80.805 272.672 62.575zm577.974 120.35c15.487-36.517-13.886-88.863-50.06-116.35-9.714-7.372-24.972-8.686-44.973-4-77.205 18.287-181.896 113.892-211.84 162.523 250.413 40.86 298.13-21.658 306.873-42.174zm-367.22 840.96H140.551c-31.545 0-57.146-26-57.146-58.06V559.117h400.022v464.769zm457.168-58.06c0 32.06-25.601 58.06-57.146 58.06H540.573V559.118h400.022v406.708z"/></svg>