<svg class="icon" viewBox="0 0 1024 1024" xmlns="http://www.w3.org/2000/svg" width="200" height="200"><defs><style/></defs><path d="M905.102 47.218H118.898c-40.164 0-72.818 32.654-72.818 72.818v783.928c0 40.164 32.654 72.818 72.818 72.818h786.204c40.164 0 72.818-32.654 72.818-72.818V120.036c0-40.164-32.654-72.818-72.818-72.818zM769.592 315.05c-5.574 134.826-116.621 242.46-252.813 242.46-134.94 0-245.191-105.586-252.587-238.592-27.876-8.533-48.242-34.588-48.242-65.308 0-37.66 30.606-68.267 68.267-68.267s68.267 30.606 68.267 68.267c0 26.51-15.133 49.493-37.32 60.87 5.234 106.838 93.526 191.83 201.615 191.83 106.837 0 194.218-82.944 201.386-187.96-27.079-9.103-46.535-34.59-46.535-64.74 0-37.66 30.606-68.267 68.267-68.267s68.267 30.606 68.267 68.267c-.114 26.965-15.816 50.403-38.571 61.44z"/></svg>