<svg class="icon" viewBox="0 0 1024 1024" xmlns="http://www.w3.org/2000/svg" width="300" height="300"><path d="M64 331.136h128l213.76-187.904A64 64 0 0 1 512 191.36v641.28a64 64 0 0 1-105.408 48.832L192 699.456H64a64 64 0 0 1-64-64v-240.32a64 64 0 0 1 64-64zm32 272.32h96c22.72 0 44.8 8.128 62.08 22.784L416 763.52V262.08L255.36 403.2A96 96 0 0 1 192 427.136H96v176.32zm610.112 174.208a48 48 0 0 1-67.84-67.84 272 272 0 0 0 0-384.64 48 48 0 0 1 67.84-67.968 368 368 0 0 1 0 520.448zM841.92 913.408a48 48 0 0 1-67.904-67.84 464 464 0 0 0 0-656.192 48 48 0 0 1 67.84-67.84 560 560 0 0 1 0 791.872z"/></svg>