<svg class="icon" viewBox="0 0 1024 1024" xmlns="http://www.w3.org/2000/svg" width="200" height="200"><defs><style/></defs><path d="M768.3 0H255.7c-70.8 0-128.1 57.4-128.1 128.1v767.8c0 70.8 57.4 128.1 128.1 128.1h512.6c70.8 0 128.1-57.4 128.1-128.1V128.1C896.4 57.3 839 0 768.3 0zM383.9 96.1c0-17.7 14.3-32 32-32h192.2c17.7 0 32 14.3 32 32s-14.3 32-32 32H415.9c-17.7 0-32-14.3-32-32zM512 959.9c-35.4 0-64.1-28.8-64.1-64.1 0-35.4 28.7-64.1 64.1-64.1 35.4 0 64.1 28.7 64.1 64.1 0 35.3-28.7 64.1-64.1 64.1zm320.3-204.3c0 6.7-5.4 12.2-12.2 12.2H203.9c-6.7 0-12.2-5.4-12.2-12.2V204.3c0-6.7 5.4-12.2 12.2-12.2h616.3c6.7 0 12.2 5.4 12.2 12.2v551.3z"/></svg>