<svg class="icon" viewBox="0 0 1024 1024" xmlns="http://www.w3.org/2000/svg" width="200" height="200"><defs><style/></defs><path d="M512 2.276c281.514 0 509.724 228.21 509.724 509.724S793.514 1021.724 512 1021.724 2.276 793.514 2.276 512 230.486 2.276 512 2.276zm0 91.022C280.758 93.298 93.298 280.758 93.298 512S280.758 930.702 512 930.702 930.702 743.242 930.702 512 743.242 93.298 512 93.298zm-91.022 224.628a36.409 36.409 0 0 1 18.204 4.879l273.07 157.665c17.414 10.053 23.38 32.32 13.326 49.736a36.409 36.409 0 0 1-13.326 13.324L439.183 701.195c-17.414 10.055-39.682 4.09-49.735-13.324a36.409 36.409 0 0 1-4.88-18.206v-315.33c0-20.108 16.302-36.41 36.41-36.41z"/></svg>