<?xml version="1.0" standalone="no"?><!DOCTYPE svg PUBLIC "-//W3C//DTD SVG 1.1//EN" "http://www.w3.org/Graphics/SVG/1.1/DTD/svg11.dtd"><svg t="1628480110426" class="icon" viewBox="0 0 1024 1024" version="1.1" xmlns="http://www.w3.org/2000/svg" p-id="2879" xmlns:xlink="http://www.w3.org/1999/xlink" width="200" height="200"><defs><style type="text/css"></style></defs><path d="M982.35 554.2c-13.1 0-26-6.2-34.2-17.7C840.05 383.3 681.05 295.4 512.05 295.4S184.05 383.3 75.95 536.5c-13.3 18.8-39.4 23.4-58.2 10.1-18.9-13.3-23.4-39.4-10.1-58.2 124-175.7 307.8-276.5 504.4-276.5s380.4 100.8 504.4 276.5c13.3 18.9 8.8 44.9-10.1 58.2-7.3 5.2-15.7 7.6-24 7.6z" fill="#2c2c2c" p-id="2880"></path><path d="M512.05 813C315.45 813 131.65 712.2 7.65 536.5c-10.2-14.4-10.2-33.7 0-48.2 124-175.7 307.8-276.5 504.4-276.5s380.4 100.8 504.4 276.5c10.2 14.4 10.2 33.7 0 48.2C892.45 712.2 708.65 813 512.05 813zM93.85 512.4c107.3 138.3 258.3 217 418.2 217s310.9-78.7 418.2-217C822.95 374.1 672.05 295.4 512.05 295.4s-310.9 78.7-418.2 217z" fill="#2c2c2c" p-id="2881"></path><path d="M512.05 668.7c-86.2 0-156.3-70.1-156.3-156.3S425.85 356.1 512.05 356.1s156.3 70.1 156.3 156.3S598.25 668.7 512.05 668.7z m0-229c-40.1 0-72.7 32.6-72.7 72.7s32.6 72.7 72.7 72.7 72.7-32.6 72.7-72.7-32.6-72.7-72.7-72.7z" fill="#2c2c2c" p-id="2882"></path></svg>