<?xml version="1.0" standalone="no"?><!DOCTYPE svg PUBLIC "-//W3C//DTD SVG 1.1//EN" "http://www.w3.org/Graphics/SVG/1.1/DTD/svg11.dtd"><svg t="1626924540648" class="icon" viewBox="0 0 1024 1024" version="1.1" xmlns="http://www.w3.org/2000/svg" p-id="2036" xmlns:xlink="http://www.w3.org/1999/xlink" width="200" height="200"><defs><style type="text/css"></style></defs><path d="M926.189566 976.599559H97.810434c-54.171932 0-97.810434-43.638501-97.810434-97.810433V175.306392c0-54.171932 43.638501-97.810434 97.810434-97.810433h828.379132c54.171932 0 97.810434 43.638501 97.810434 97.810433v703.482734c-0.752388 54.171932-44.390889 97.810434-97.810434 97.810433zM97.810434 133.172667c-23.324026 0-42.886113 18.809699-42.886114 42.886113v703.482734c0 23.324026 18.809699 42.886113 42.886114 42.886113h828.379132c23.324026 0 42.886113-18.809699 42.886114-42.886113V175.306392c0-23.324026-18.809699-42.886113-42.886114-42.886113H97.810434z m0 0" fill="" p-id="2037"></path><path d="M381.460691 173.049229c0 15.047759-12.038207 27.838354-27.838354 27.838354-15.047759 0-27.838354-12.038207-27.838355-27.838354V36.114622c0-15.047759 12.038207-27.838354 27.838355-27.838355 15.047759 0 27.838354 12.038207 27.838354 27.838355V173.049229zM697.46363 173.049229c0 15.047759-12.038207 27.838354-27.838354 27.838354-15.047759 0-27.838354-12.038207-27.838355-27.838354V36.114622c0-15.047759 12.038207-27.838354 27.838355-27.838355 15.047759 0 27.838354 12.038207 27.838354 27.838355V173.049229zM538.709772 506.35709h-66.962527c-30.095518 0-54.171932-24.076414-54.171933-54.171932v-66.962528c0-30.095518 24.076414-54.171932 54.171933-54.171932h66.962527c30.095518 0 54.171932 24.076414 54.171933 54.171932v66.962528c-0.752388 30.095518-24.828802 54.171932-54.171933 54.171932z m-66.962527-151.982366c-17.304923 0-31.600294 14.295371-31.600294 31.600294v66.962528c0 17.304923 14.295371 31.600294 31.600294 31.600294h66.962527c17.304923 0 31.600294-14.295371 31.600294-31.600294v-66.962528c0-17.304923-14.295371-31.600294-31.600294-31.600294h-66.962527zM777.96914 506.35709h-66.962527c-30.095518 0-54.171932-24.076414-54.171933-54.171932v-66.962528c0-30.095518 24.076414-54.171932 54.171933-54.171932h66.962527c30.095518 0 54.171932 24.076414 54.171933 54.171932v66.962528c0 30.095518-24.076414 54.171932-54.171933 54.171932z m-66.962527-151.982366c-17.304923 0-31.600294 14.295371-31.600294 31.600294v66.962528c0 17.304923 14.295371 31.600294 31.600294 31.600294h66.962527c17.304923 0 31.600294-14.295371 31.600294-31.600294v-66.962528c0-17.304923-14.295371-31.600294-31.600294-31.600294h-66.962527zM298.698016 506.35709h-66.962527c-30.095518 0-54.171932-24.076414-54.171933-54.171932v-66.962528c0-30.095518 24.076414-54.171932 54.171933-54.171932h66.962527c30.095518 0 54.171932 24.076414 54.171933 54.171932v66.962528c0 30.095518-24.828802 54.171932-54.171933 54.171932z m-66.962527-151.982366c-17.304923 0-31.600294 14.295371-31.600294 31.600294v66.962528c0 17.304923 14.295371 31.600294 31.600294 31.600294h66.962527c17.304923 0 31.600294-14.295371 31.600294-31.600294v-66.962528c0-17.304923-14.295371-31.600294-31.600294-31.600294h-66.962527zM538.709772 773.454813h-66.962527c-30.095518 0-54.171932-24.076414-54.171933-54.171933v-66.962527c0-30.095518 24.076414-54.171932 54.171933-54.171933h66.962527c30.095518 0 54.171932 24.076414 54.171933 54.171933v66.962527c-0.752388 30.095518-24.828802 54.171932-54.171933 54.171933z m-66.962527-151.982366c-17.304923 0-31.600294 14.295371-31.600294 31.600294v66.962527c0 17.304923 14.295371 31.600294 31.600294 31.600294h66.962527c17.304923 0 31.600294-14.295371 31.600294-31.600294v-66.962527c0-17.304923-14.295371-31.600294-31.600294-31.600294h-66.962527z" fill="" p-id="2038"></path><path d="M777.96914 762.168993h-66.962527c-23.324026 0-42.886113-18.809699-42.886113-42.886113v-66.962527c0-23.324026 18.809699-42.886113 42.886113-42.886113h66.962527c23.324026 0 42.886113 18.809699 42.886113 42.886113v66.962527c0 24.076414-18.809699 42.886113-42.886113 42.886113z" fill="#FFFFFF" p-id="2039"></path><path d="M777.96914 773.454813h-66.962527c-30.095518 0-54.171932-24.076414-54.171933-54.171933v-66.962527c0-30.095518 24.076414-54.171932 54.171933-54.171933h66.962527c30.095518 0 54.171932 24.076414 54.171933 54.171933v66.962527c0 30.095518-24.076414 54.171932-54.171933 54.171933z m-66.962527-151.982366c-17.304923 0-31.600294 14.295371-31.600294 31.600294v66.962527c0 17.304923 14.295371 31.600294 31.600294 31.600294h66.962527c17.304923 0 31.600294-14.295371 31.600294-31.600294v-66.962527c0-17.304923-14.295371-31.600294-31.600294-31.600294h-66.962527z" fill="" p-id="2040"></path><path d="M298.698016 773.454813h-66.962527c-30.095518 0-54.171932-24.076414-54.171933-54.171933v-66.962527c0-30.095518 24.076414-54.171932 54.171933-54.171933h66.962527c30.095518 0 54.171932 24.076414 54.171933 54.171933v66.962527c0 30.095518-24.828802 54.171932-54.171933 54.171933z m-66.962527-151.982366c-17.304923 0-31.600294 14.295371-31.600294 31.600294v66.962527c0 17.304923 14.295371 31.600294 31.600294 31.600294h66.962527c17.304923 0 31.600294-14.295371 31.600294-31.600294v-66.962527c0-17.304923-14.295371-31.600294-31.600294-31.600294h-66.962527z" fill="" p-id="2041"></path></svg>