<?xml version="1.0" standalone="no"?><!DOCTYPE svg PUBLIC "-//W3C//DTD SVG 1.1//EN" "http://www.w3.org/Graphics/SVG/1.1/DTD/svg11.dtd"><svg t="1632731319328" class="icon" viewBox="0 0 1024 1024" version="1.1" xmlns="http://www.w3.org/2000/svg" p-id="39421" xmlns:xlink="http://www.w3.org/1999/xlink" width="200" height="200"><defs><style type="text/css"></style></defs><path d="M950.9 109.7H73.1C32.7 109.7 0 142.5 0 182.9v658.3c0 40.4 32.7 73.1 73.1 73.1h877.7c40.4 0 73.1-32.7 73.1-73.1V182.9c0.1-40.4-32.6-73.2-73-73.2zM402.3 769.6c0 20.2-16.4 36.6-36.6 36.6H182.9c-20.2 0-36.6-16.4-36.6-36.6v-73.1c0-20.2 16.4-36.6 36.6-36.6h182.9c20.2 0 36.6 16.4 36.6 36.6v73.1z m0-219.5c0 20.2-16.4 36.6-36.6 36.6H182.9c-20.2 0-36.6-16.4-36.6-36.6V477c0-20.2 16.4-36.6 36.6-36.6h182.9c20.2 0 36.6 16.4 36.6 36.6v73.1z m0-219.4c0 20.2-16.4 36.6-36.6 36.6H182.9c-20.2 0-36.6-16.4-36.6-36.6v-73.1c0-20.2 16.4-36.6 36.6-36.6h182.9c20.2 0 36.6 16.4 36.6 36.6v73.1z m523.1 116.7l-181 181-25.9 25.9c-14.3 14.3-37.4 14.3-51.7 0l-25.9-25.9-103.4-103.5c-14.3-14.3-14.3-37.4 0-51.7l25.9-25.9c14.3-14.3 37.4-14.3 51.7 0l77.6 77.6 155.2-155.2c14.3-14.3 37.4-14.3 51.7 0l25.9 25.9c14.2 14.3 14.2 37.5-0.1 51.8z" p-id="39422"></path></svg>